<?xml version="1.0" encoding="UTF-8" standalone="no"?>
<!DOCTYPE svg PUBLIC "-//W3C//DTD SVG 1.1//EN" "http://www.w3.org/Graphics/SVG/1.1/DTD/svg11.dtd">
<svg width="100%" height="100%" viewBox="0 0 256 209" version="1.1" xmlns="http://www.w3.org/2000/svg" xmlns:xlink="http://www.w3.org/1999/xlink" xml:space="preserve" xmlns:serif="http://www.serif.com/" style="fill-rule:evenodd;clip-rule:evenodd;stroke-linejoin:round;stroke-miterlimit:2;">
    <path d="M256,25.45C246.58,29.627 236.458,32.45 225.834,33.72C236.679,27.22 245.006,16.927 248.927,4.663C238.618,10.781 227.338,15.091 215.576,17.408C205.995,7.201 192.346,0.822 177.239,0.822C148.233,0.822 124.716,24.338 124.716,53.342C124.716,57.459 125.181,61.467 126.076,65.312C82.426,63.121 43.726,42.212 17.821,10.436C13.301,18.193 10.711,27.216 10.711,36.84C10.711,55.062 19.984,71.137 34.076,80.556C25.736,80.295 17.578,78.042 10.286,73.986C10.283,74.206 10.283,74.426 10.283,74.647C10.283,100.094 28.387,121.322 52.413,126.147C44.679,128.25 36.566,128.558 28.695,127.047C35.378,147.913 54.775,163.097 77.757,163.522C59.782,177.608 37.135,186.005 12.529,186.005C8.289,186.005 4.109,185.756 0,185.271C23.243,200.173 50.85,208.868 80.51,208.868C177.117,208.868 229.944,128.837 229.944,59.433C229.944,57.155 229.894,54.89 229.792,52.638C240.074,45.205 248.949,35.998 256,25.45" style="fill:rgb(35,35,35);fill-rule:nonzero;"/>
</svg>
